<svg xmlns="http://www.w3.org/2000/svg" viewBox="0 0 200 200" width="100%" height="100%">
  <!-- Circular White Background Badge -->
  <circle cx="100" cy="100" r="98" fill="#ffffff" />

  <!-- Official Sage/Teal Green Graphic Elements -->
  <g fill="#568782">
    <!-- Adult Head Circle -->
    <circle cx="114" cy="87" r="16.5" />

    <!-- Child Head Circle -->
    <circle cx="89.5" cy="115" r="9.5" />

    <!-- Parent / Tall Central Right Body Leaf -->
    <path d="M 106 185 C 105 160 110 134 126 106 C 137 122 143 145 137 165 C 131 178 120 184 106 185 Z" />

    <!-- Child / Inner Left Body Leaf -->
    <path d="M 102 185 C 94 163 87 146 76 126 C 88 138 93 157 98 181 Z" />

    <!-- Left Outer Floating Leaf -->
    <path d="M 50 144 C 54 136 65 140 70 148 C 65 156 55 154 50 144 Z" />

    <!-- Right Outer Floating Leaf -->
    <path d="M 150 144 C 146 136 135 140 130 148 C 135 156 145 154 150 144 Z" />

    <!-- Left Bottom Horizontal Petal -->
    <path d="M 100 186 C 75 187 52 178 48 160 C 65 158 86 168 100 186 Z" />

    <!-- Right Bottom Horizontal Petal -->
    <path d="M 100 186 C 125 187 148 178 152 160 C 135 158 114 168 100 186 Z" />
  </g>
</svg>
